<?xml version="1.0" encoding="UTF-8" standalone="no"?>
<!-- Created with Inkscape (http://www.inkscape.org/) -->

<svg
   width="393.37521mm"
   height="350.97232mm"
   viewBox="0 0 393.37521 350.97232"
   version="1.1"
   id="svg1"
   xml:space="preserve"
   xmlns:xlink="http://www.w3.org/1999/xlink"
   xmlns="http://www.w3.org/2000/svg"
   xmlns:svg="http://www.w3.org/2000/svg"><defs
     id="defs1"><linearGradient
       id="linearGradient7"><stop
         style="stop-color:#015288;stop-opacity:1;"
         offset="0"
         id="stop7" /><stop
         style="stop-color:#01817a;stop-opacity:1;"
         offset="1"
         id="stop8" /></linearGradient><linearGradient
       id="linearGradient4"><stop
         style="stop-color:#13518a;stop-opacity:1;"
         offset="0"
         id="stop4" /><stop
         style="stop-color:#13518a;stop-opacity:0;"
         offset="1"
         id="stop5" /></linearGradient><linearGradient
       id="linearGradient2"><stop
         style="stop-color:#015088;stop-opacity:1;"
         offset="0"
         id="stop2" /><stop
         style="stop-color:#01827a;stop-opacity:1;"
         offset="1"
         id="stop3" /></linearGradient><linearGradient
       xlink:href="#linearGradient2"
       id="linearGradient3"
       x1="147.48836"
       y1="121.53107"
       x2="163.68379"
       y2="79.340553"
       gradientUnits="userSpaceOnUse"
       gradientTransform="matrix(5.2230042,0,0,5.2230042,-630.02197,-388.80903)" /><linearGradient
       xlink:href="#linearGradient4"
       id="linearGradient5"
       x1="137.05013"
       y1="101.6802"
       x2="182.16006"
       y2="101.6802"
       gradientUnits="userSpaceOnUse"
       gradientTransform="matrix(5.2230042,0,0,5.2230042,-650.662,-395.04114)" /><linearGradient
       xlink:href="#linearGradient7"
       id="linearGradient8"
       x1="186.2771"
       y1="109.2558"
       x2="191.12135"
       y2="107.19953"
       gradientUnits="userSpaceOnUse"
       gradientTransform="matrix(5.2230042,0,0,5.2230042,-650.662,-395.04114)" /></defs><g
     id="layer4"
     transform="translate(-4.3476696,-23.428814)"><g
       id="g35"
       style="display:none"><rect
         style="fill:#fffffe;fill-opacity:1;stroke:#02707a;stroke-width:0.01;stroke-linecap:round;stroke-linejoin:round;stroke-dasharray:none;stroke-opacity:1;paint-order:normal"
         id="rect34"
         width="422.27502"
         height="414.86667"
         x="-11.641664"
         y="-2.1166666" /></g><g
       id="g45"
       style="display:inline"><path
         style="fill:#032047;fill-opacity:1;stroke:#02707a;stroke-width:0.0522301;stroke-linecap:round;stroke-linejoin:round;stroke-dasharray:none;stroke-opacity:1;paint-order:normal"
         d="M 7.3365318,327.69442 C 6.4504921,333.98485 5.152218,340.22049 4.3737843,346.52581 180.55987,322.59545 176.94273,372.55902 195.20317,374.37001 l 18.39576,0.005 c 20.04995,-0.25919 20.48811,-48.23676 184.09783,-27.93052 -0.71787,-6.95138 -1.07302,-11.02016 -2.0727,-19.51962 -39.76581,-6.25643 -125.3721,-12.22391 -185.45964,32.56904 l -10.91592,0.16191 C 145.99162,316.81907 71.500977,321.09924 7.3363118,327.69459 Z"
         id="path35" /><path
         style="display:inline;fill:#032148;fill-opacity:1;stroke:#02707a;stroke-width:0.0522301;stroke-linecap:round;stroke-linejoin:round;stroke-dasharray:none;stroke-opacity:1;paint-order:normal"
         d="m 258.95005,118.76075 c -4.01988,-1.46112 -6.70676,-0.96394 -8.75955,2.36027 l -10.8814,-3.41773 c -2.95602,-7.82442 -12.83642,-4.0593 -10.62056,3.30036 -7.17045,8.00684 -15.27082,16.21511 -22.44993,24.21424 -3.90989,-2.64242 -7.95538,-1.19899 -10.07482,2.39799 l -17.70671,-5.5616 c -2.34883,-10.1612 -15.14185,-8.05043 -14.39094,1.93998 l -35.26122,29.87282 c -9.25445,-7.95668 -17.68364,4.67192 -12.40955,10.46423 5.20816,5.71998 17.18096,-0.19639 13.2262,-9.08161 l 36.06004,-28.44683 c 4.34487,3.52611 9.47908,3.24595 12.09397,-2.59641 l 17.94535,5.79597 c 0.93274,6.94022 12.11785,8.5429 12.3858,-2.61704 l 23.20564,-24.57763 c 2.50003,1.12527 6.012,-0.0303 7.21619,-2.75328 l 10.79376,3.4714 c 2.30514,7.34761 11.69928,6.07178 11.73709,-1.94453 l 30.88164,-28.215185 c 16.07343,6.768615 22.26808,-9.314992 15.93106,-16.697243 -6.61159,-6.45143 -23.58802,-1.068836 -18.34705,13.940854 -11.08678,10.511484 -19.48349,17.536224 -30.57501,28.150974 z"
         id="path36" /><path
         style="fill:url(#linearGradient8);stroke:#13518a;stroke-width:0.0522301;stroke-linecap:round;stroke-linejoin:round;stroke-dasharray:none;stroke-opacity:1;paint-order:normal"
         d="m 333.73893,232.8162 -13.86504,0.0108 c 8.34067,-12.25496 13.98585,-27.2245 18.41898,-46.14091 3.1922,-14.45593 2.46531,-29.3581 0.20527,-43.89512 -1.49342,-10.36866 -4.48813,-20.25692 -7.96791,-30.10412 -0.58508,-1.91339 -0.89595,-3.53014 -0.20579,-4.15612 0.79499,-0.71836 2.06894,-0.54514 2.47811,0.0722 2.60587,3.32131 3.7137,6.19552 5.18138,9.44216 21.8402,45.98796 4.62247,95.01432 -4.24522,114.77154 z"
         id="path37" /><path
         style="fill:url(#linearGradient3);stroke:url(#linearGradient5);stroke-width:0;stroke-linejoin:round;stroke-dasharray:none;stroke-opacity:1;paint-order:normal"
         d="m 300.16756,62.284422 c -4.66724,-5.721089 -10.71588,-9.966985 -16.61757,-14.288237 l -6.66483,-4.200832 -8.25582,-4.751692 C 260.30188,34.25821 249.90412,30.201673 237.31077,26.767767 221.90804,23.037085 206.13749,22.746305 190.47062,24.360335 180.46225,25.721026 170.86478,28.7278 161.2873,31.823324 150.76612,35.805592 140.25572,41.265403 128.00349,48.577943 98.155082,67.901768 81.954396,97.149215 73.174478,123.8102 c -7.081722,23.33881 -9.394312,47.34796 -5.412814,71.44544 2.598285,19.05134 11.792561,36.11686 19.618838,53.40371 l 20.370278,0.1875 c -6.09829,-12.86416 -11.596456,-25.89143 -16.043672,-39.4327 -6.634851,-20.99203 -5.861127,-42.4565 -2.484785,-63.93542 3.375719,-19.94085 12.145937,-37.76985 23.835117,-54.06321 8.21282,-10.84502 18.05357,-19.996418 28.58917,-28.541216 12.84974,-10.301456 28.41199,-15.96521 33.05534,-17.505354 13.62065,-4.786877 27.94944,-5.689419 42.22151,-6.097658 39.85529,-1.502498 72.18699,25.61577 79.50746,27.320387 2.39745,0.329415 3.63374,-1.143368 4.21606,-2.25906 0.29196,-0.769996 -0.0558,-1.504361 -0.47948,-2.048197 z"
         id="path38" /><path
         style="fill:#015088;fill-opacity:1;stroke:#015088;stroke-width:0.0522301;stroke-linecap:round;stroke-linejoin:round;stroke-dasharray:none;stroke-opacity:1;paint-order:normal"
         d="m 269.86937,118.16934 0.51811,124.39376 4.51399,-1.46782 6.32291,-1.95899 6.58455,-1.69383 7.20362,-1.34611 7.34141,-1.16379 6.19333,-0.67774 -0.0914,-115.61085 z"
         id="path39" /><path
         style="fill:#02727b;fill-opacity:1;stroke:#02707a;stroke-width:0.0522301;stroke-linecap:round;stroke-linejoin:round;stroke-dasharray:none;stroke-opacity:1;paint-order:normal"
         d="m 214.80851,277.84586 -0.43507,-118.95663 39.33089,-0.12227 -0.36666,90.99848 -4.19871,2.09175 -4.30563,2.42765 -4.58048,2.82459 -5.40498,3.45064 c -5.63103,3.48097 -10.25453,8.17561 -14.99832,12.73081 l -1.82722,1.93915 c -0.62603,0.60236 -1.27138,1.18338 -1.9173,1.76407 l -0.62824,0.54125 -0.14728,0.10967 -0.17915,0.12535 -0.17446,0.0616 z"
         id="path40" /><path
         style="fill:#02727b;fill-opacity:1;stroke:#02707a;stroke-width:0.0522301;stroke-linecap:round;stroke-linejoin:round;stroke-dasharray:none;stroke-opacity:1;paint-order:normal"
         d="m 159.305,182.29905 0.0971,69.3983 c 3.59078,1.53557 5.76019,2.67596 9.53314,4.64209 l 5.47366,3.19571 3.89954,2.81855 4.08967,3.22734 6.39139,5.67887 2.87975,2.79132 c 1.88414,1.96563 2.63782,2.78235 5.82188,5.78076 l 0.1295,-97.66286 z"
         id="path41" /><path
         style="fill:#02727b;fill-opacity:1;stroke:#02707a;stroke-width:0.0522301;stroke-linecap:round;stroke-linejoin:round;stroke-dasharray:none;stroke-opacity:1;paint-order:normal"
         d="m 105.02237,233.04685 0.15253,-30.55165 37.13226,0.12227 h 0.79394 v 41.04095 l -9.42035,-2.9781 -17.29003,-4.83013 z"
         id="path42" /><text
         xml:space="preserve"
         style="font-size:171.657px;line-height:0;font-family:'Mongolian Baiti';-inkscape-font-specification:'Mongolian Baiti';text-align:center;letter-spacing:4.54388px;writing-mode:lr-tb;direction:ltr;text-anchor:middle;display:none;fill:#032047;fill-opacity:1;stroke:#02707a;stroke-width:0.0572457;stroke-linecap:round;stroke-linejoin:round;stroke-dasharray:none;stroke-opacity:1;paint-order:normal"
         x="808.87683"
         y="183.89685"
         id="text42"><tspan
           id="tspan42"
           style="font-style:normal;font-variant:normal;font-weight:bold;font-stretch:normal;font-size:171.657px;line-height:0;font-family:Montserrat;-inkscape-font-specification:'Montserrat Bold';stroke-width:0.0572457"
           x="0"
           y="0">ACLEDS</tspan></text><path
         style="display:none;fill:#3e8c97;fill-opacity:1;stroke:#02707a;stroke-width:0.0578238;stroke-linecap:round;stroke-linejoin:round;stroke-dasharray:none;stroke-opacity:1;paint-order:normal"
         d="m 433.76015,210.7821 -0.005,5.32412 743.86595,-0.40186 -0.017,-4.92198 z"
         id="path43" /><text
         xml:space="preserve"
         style="font-style:normal;font-variant:normal;font-weight:bold;font-stretch:normal;font-size:30.2925px;line-height:0;font-family:Montserrat;-inkscape-font-specification:'Montserrat Bold';text-align:center;letter-spacing:4.54388px;writing-mode:lr-tb;direction:ltr;text-anchor:middle;display:none;fill:#333333;fill-opacity:1;stroke:#02707a;stroke-width:0.0572457;stroke-linecap:round;stroke-linejoin:round;stroke-dasharray:none;stroke-opacity:1;paint-order:normal"
         x="725.13318"
         y="260.53256"
         id="text43"><tspan
           id="tspan43"
           style="font-style:normal;font-variant:normal;font-weight:bold;font-stretch:normal;font-size:30.2925px;font-family:Roboto;-inkscape-font-specification:'Roboto Bold';fill:#333333;fill-opacity:1;stroke-width:0.0572457"
           x="0"
           y="0">AFRICAN CENTRE FOR LEARNING</tspan></text><text
         xml:space="preserve"
         style="font-style:normal;font-variant:normal;font-weight:bold;font-stretch:normal;font-size:36.3509px;line-height:0;font-family:Montserrat;-inkscape-font-specification:'Montserrat Bold';text-align:center;letter-spacing:2.27193px;writing-mode:lr-tb;direction:ltr;text-anchor:middle;display:none;fill:#14897f;fill-opacity:1;stroke:#02707a;stroke-width:0.0572457;stroke-linecap:round;stroke-linejoin:round;stroke-dasharray:none;stroke-opacity:1;paint-order:normal"
         x="785.94916"
         y="350.1041"
         id="text44"><tspan
           id="tspan44"
           style="font-style:normal;font-variant:normal;font-weight:normal;font-stretch:normal;font-size:36.3509px;font-family:Roboto;-inkscape-font-specification:Roboto;letter-spacing:2.27193px;fill:#14897f;fill-opacity:1;stroke-width:0.0572457"
           x="0"
           y="0">Evidence. Insight. Impact.</tspan></text><text
         xml:space="preserve"
         style="font-style:normal;font-variant:normal;font-weight:bold;font-stretch:normal;font-size:30.2925px;line-height:0;font-family:Montserrat;-inkscape-font-specification:'Montserrat Bold';text-align:center;letter-spacing:2.39311px;writing-mode:lr-tb;direction:ltr;text-anchor:middle;display:none;fill:#333333;fill-opacity:1;stroke:#02707a;stroke-width:0.0572457;stroke-linecap:round;stroke-linejoin:round;stroke-dasharray:none;stroke-opacity:1;paint-order:normal"
         x="804.15668"
         y="297.86407"
         id="text45"><tspan
           style="font-style:normal;font-variant:normal;font-weight:bold;font-stretch:normal;font-size:30.2925px;font-family:Roboto;-inkscape-font-specification:'Roboto Bold';letter-spacing:2.39311px;fill:#333333;fill-opacity:1;stroke-width:0.0572457"
           x="0"
           y="0"
           id="tspan45">ANALYTICS AND EDUCATIONAL DATA SCIENCE</tspan></text><path
         style="display:inline;fill:#032047;fill-opacity:1;stroke:#02707a;stroke-width:0.0522301;stroke-linecap:round;stroke-linejoin:round;stroke-dasharray:none;stroke-opacity:1;paint-order:normal"
         d="m 39.175226,241.72163 -17.749029,73.50082 c 56.375023,-8.24748 135.863453,7.17824 169.148503,28.20407 -17.0988,-34.57827 -107.551621,-47.341 -141.466949,-49.667 l 7.859688,-40.7666 c 31.504507,-2.61694 55.716811,3.43988 85.419831,11.57371 26.94888,9.01673 47.59149,27.31511 62.70462,50.72074 31.52229,-51.24936 87.85487,-61.45297 143.2014,-62.13264 l 7.77335,40.24843 c -78.50309,-0.30973 -131.26145,35.61733 -136.13551,50.01187 33.80674,-23.38813 89.77613,-32.49142 162.04668,-26.17269 L 366.2585,241.58223 C 355.52691,240.04124 250.70769,227.27987 205.0921,305.42044 194.75026,286.20151 165.4773,234.35113 39.175432,241.72267 Z"
         id="path45" /></g></g></svg>
